<svg width="17" height="17" viewBox="0 0 17 17" fill="none" xmlns="http://www.w3.org/2000/svg">
<path d="M10.6716 12.2417L12.05 10.8634C12.2356 10.68 12.4705 10.5545 12.7261 10.5021C12.9817 10.4497 13.247 10.4726 13.4898 10.568L15.1696 11.2387C15.415 11.3383 15.6254 11.5084 15.7743 11.7274C15.9233 11.9464 16.004 12.2045 16.0065 12.4694V15.546C16.005 15.7261 15.9672 15.9041 15.8951 16.0692C15.8231 16.2344 15.7184 16.3832 15.5873 16.5068C15.4562 16.6304 15.3015 16.7262 15.1324 16.7884C14.9634 16.8507 14.7835 16.878 14.6035 16.8689C2.8325 16.1367 0.457376 6.16851 0.00819447 2.35355C-0.0126569 2.1662 0.00639445 1.97657 0.064095 1.79712C0.121795 1.61767 0.216838 1.45247 0.342969 1.31239C0.4691 1.17231 0.623461 1.06052 0.795898 0.984381C0.968335 0.908241 1.15494 0.869474 1.34343 0.870631H4.31542C4.58063 0.871416 4.83953 0.951525 5.05884 1.10065C5.27815 1.24978 5.44783 1.46111 5.54605 1.70746L6.21675 3.38728C6.31536 3.62914 6.34051 3.8947 6.28908 4.15077C6.23764 4.40685 6.1119 4.64209 5.92755 4.82712L4.54924 6.20543C4.54924 6.20543 5.343 11.5772 10.6716 12.2417Z" fill="#5CE1E6"/>
</svg>
